<?xml version="1.0" encoding="utf-8"?>
<svg xmlns="http://www.w3.org/2000/svg" xmlns:xlink="http://www.w3.org/1999/xlink" version= "1.1" width="1012px" height="1013px" viewBox="-146 207 1012 1013">
<g id="layer1">
<g style="fill:white; fill-opacity:1.0; stroke-linejoin: miter; stroke:black">
<path d="M529.20746,478.24213C528.90454,478.24213,528.6009,478.24347,528.2967,478.2464C527.9332,478.2497,527.56866,478.2552,527.20337,478.2625C527.00433,478.26636,526.80835,478.2702,526.61475,478.2741C521.8707,478.37402,518.75684,478.6272,513.6242,479.3073C511.62347,479.56433,501.85077,481.53607,500.54028,481.93805C500.1546,482.05542,498.84357,482.45746,497.60437,482.8106C484.5492,486.70288,472.7992,493.70007,464.47852,502.53064C459.8952,507.38446,455.86444,513.3342,453.14856,519.27704C449.5915,527.0169,447.78455,535.6074,447.92834,544.1664C448.00616,549.56323,448.8429,552.787,450.9809,555.94006L451.6161,556.88745L450.8969,558.6406C449.7032,561.53503,447.90118,565.3353,444.4339,572.28235C438.87268,583.4219,437.05103,587.5071,435.99878,591.27527C435.16046,594.28906,435.12268,596.0746,435.8404,597.39844C436.72455,599.0321,438.35883,599.9585,442.1828,600.9651C443.69714,601.3607,444.39893,601.504,445.1189,601.504C445.13593,601.504,445.15277,601.504,445.1698,601.50366C445.19202,601.50354,445.2143,601.5032,445.2365,601.5027C445.39136,601.4995,445.54926,601.4901,445.7177,601.4752C446.35236,601.42615,446.919,601.3954,447.42676,601.3845C447.50287,601.38306,447.57776,601.38184,447.6513,601.3811C447.70624,601.3805,447.7605,601.3804,447.81396,601.3804C449.67096,601.3804,450.67365,601.6903,451.35034,602.3994C451.9673,603.0382,452.09357,603.91565,451.90698,605.9968C451.81122,606.9889,451.74658,608.1222,451.78516,608.525C451.83075,609.4861,451.60962,610.3573,450.8758,611.9662C449.9745,613.9403,449.82953,614.6305,450.06824,615.6477C450.42615,617.1332,451.41895,617.9855,454.36987,619.3639C455.00867,619.6521,455.59552,620.00146,455.66968,620.1167C455.91608,620.4905,455.59418,621.3511,454.55438,623.14197C453.5666,624.8722,453.30273,625.6212,453.46094,626.3429C453.59143,626.9398,453.84155,627.1814,456.08514,628.8629C458.74506,630.86487,459.85687,632.18555,460.35083,633.9199C460.6784,635.11584,460.68286,635.2136,460.19604,639.6814C459.48535,646.1395,459.59583,648.60046,460.6942,650.7627C462.0503,653.428,465.96802,656.2909,469.5904,657.27576C471.2503,657.7186,472.3767,657.90076,474.28552,657.97644L475.78143,658.04456L489.38348,655.15173L502.96747,652.2462L503.73035,652.8031C504.734,653.5548,506.6928,656.0392,507.95544,658.1987C508.75226,659.5499,509.59515,661.157,510.47253,662.9988L510.45135,662.99915Q509.6891,663.3956,508.94727,663.7793L508.9688,663.77905C509.1585,664.0769,509.34912,664.36633,509.53918,664.645C514.44635,671.59546,514.44977,671.7716,511.20056,676.6008C501.28802,691.62134,497.5888,708.6272,497.98517,735.9512C498.41772,756.5741,497.13672,762.77246,490.7815,770.84076C488.03503,774.4255,482.37512,790.41473,478.95087,803.7116C476.01813,815.2354,473.94208,833.97003,473.19604,857.26276C473.0097,865.2015,472.2871,872.79913,471.60443,873.8715C470.7489,875.12384,470.0451,883.6032,469.7082,892.77936L469.00195,909.54645L453.47955,909.34296C452.5937,909.3316,451.73975,909.32574,450.91785,909.32574C450.41302,909.32574,449.92017,909.32806,449.4395,909.33246C448.89996,909.3376,448.37555,909.3455,447.86658,909.356C440.89093,909.50226,436.75256,910.18085,435.36218,911.486C433.9745,912.5732,428.00714,913.9327,422.02515,914.58685C420.50726,914.68915,419.15936,914.76544,417.92023,914.79156C417.74628,914.7951,417.57495,914.7979,417.40527,914.7996C417.2827,914.8006,417.1612,914.80133,417.04083,914.80133C409.54272,914.80133,405.76703,912.5451,390.36633,901.6723C386.96216,899.0987,380.55405,896.2353,376.11783,894.91754C371.6857,893.7762,367.0623,891.9338,365.98587,891.0744C365.27255,890.587,363.53323,890.34955,361.42093,890.34955C361.3317,890.34955,361.24197,890.35016,361.15164,890.351C361.03482,890.3521,360.91678,890.3537,360.7982,890.3564C359.3644,890.3863,357.7969,890.5185,356.28085,890.7491C352.06528,891.54193,343.27078,892.60846,336.4078,893.28204C324.79648,894.58295,317.98557,897.7238,318.0743,901.9537C318.09256,902.835,315.87485,906.40814,312.94876,909.8199C310.1951,913.05194,307.816,917.3338,307.85306,919.0964C307.95706,924.05426,305.26462,925.99567,296.416,926.1811C296.1625,926.1866,295.90402,926.19025,295.6403,926.1928C295.40842,926.1949,295.17264,926.1961,294.93253,926.1961C293.11874,926.1961,291.07468,926.1346,288.7775,926.02057C280.8347,925.65814,267.94547,924.8704,260.00284,924.5079C251.88387,924.1495,244.45525,923.0704,243.37898,922.2115C243.00758,921.90656,242.5933,921.75653,242.1407,921.75653L242.12184,921.75946C242.11427,921.7568,242.10652,921.7569,242.09874,921.7569C241.02827,921.7797,239.74535,922.633,238.30785,924.25714C236.42912,926.4621,234.4558,927.611,231.82216,927.6663C231.7856,927.6672,231.74873,927.6678,231.71162,927.66815C231.6816,927.66864,231.65166,927.66864,231.6216,927.66864C228.49174,927.66864,224.43346,926.1611,218.53374,923.0849C213.48476,920.40643,211.13268,919.1872,209.36583,919.1872C209.35405,919.1872,209.34224,919.1872,209.3303,919.1873C209.31569,919.1873,209.30132,919.1873,209.28679,919.1879C207.84941,919.21796,206.78578,920.0688,204.92467,921.60675C202.19987,923.8411,200.39479,924.8897,198.51512,924.92926C198.49449,924.92975,198.47392,924.9301,198.45332,924.93036C198.437,924.93036,198.42064,924.93036,198.40425,924.93036C196.96977,924.93036,195.48051,924.3466,193.49727,923.2575C192.41747,922.56964,191.47519,922.1706,190.44574,922.1706C190.43347,922.1706,190.4212,922.1706,190.40894,922.1706C190.39334,922.1711,190.37769,922.1712,190.36209,922.1717C187.82938,922.2247,184.7384,924.68695,177.79282,931.16925C171.91818,936.935,170.72882,939.076,170.84698,944.7166C170.9578,950.00397,172.24698,952.622,176.92209,956.93243L182.85709,962.451L273.2784,960.5549C284.20444,960.35065,293.8472,960.1629,302.36215,959.9841C355.52634,958.87006,364.72928,958.12103,367.87454,955.9272C372.9163,952.471,373.02933,949.4711,368.35812,945.3366C366.38235,943.61505,364.75162,941.5329,364.7332,940.6517C364.71133,939.60126,365.27347,939.0932,366.2504,939.07294C366.26175,939.07245,366.27316,939.07245,366.28464,939.0723C366.29398,939.0723,366.30344,939.0723,366.3127,939.0723C368.46536,939.0723,372.5447,941.35126,376.8223,945.336C384.37274,952.2309,391.14478,955.616,401.04486,956.8194C408.9989,957.71014,411.3454,960.3061,409.88147,966.1557C407.62054,976.0787,407.97662,976.24713,420.32605,976.5169C430.38025,976.65875,432.33374,977.3233,433.09796,980.1286C433.66278,982.20197,435.58264,983.56244,437.4939,983.56244C437.50635,983.56244,437.51886,983.56244,437.5313,983.5621C437.54706,983.5621,437.56287,983.5616,437.57843,983.5612C437.615,983.5606,437.65155,983.56,437.6881,983.55975C437.71777,983.5594,437.74762,983.5594,437.77704,983.5594C439.81488,983.5594,441.66437,984.2093,442.19446,985.0524C443.46906,986.96515,432.1598,994.25543,428.10583,994.34064C426.51917,994.37384,421.99976,997.4661,417.84314,1001.0804C402.09564,1015.34064,396.7199,1019.686,395.31,1019.71564C394.42847,1019.7341,391.30804,1022.2684,388.19446,1025.1549C382.83725,1030.3812,382.3123,1030.5682,363.80496,1030.9562C353.4056,1031.1744,342.49228,1032.1085,339.5181,1033.2286C336.5403,1034.173,322.3221,1037.2921,307.7446,1040.0668C258.92117,1049.5538,244.88704,1053.0223,234.94759,1058.3444C227.27687,1062.5609,224.17809,1066.1525,219.46062,1076.6554C216.42863,1083.4193,215.97716,1087.132,216.88893,1096.9882C218.4929,1114.5883,219.9876,1118.6124,228.6404,1127.6014C228.87413,1127.8439,229.10555,1128.0883,229.33452,1128.3331L229.34196,1128.336Q291.35904,1150.6029,361.035,1153.3248L361.035,1153.3278C360.5848,1151.3395,360.82315,1150.3639,361.7487,1150.3375L361.76816,1150.3373L361.77426,1150.3373L361.7872,1150.34C362.7855,1150.3373,364.54922,1151.3959,367.07803,1153.4423C367.1133,1153.4706,367.14822,1153.4987,367.18326,1153.5272L367.19205,1153.5299Q370.514,1153.6151,373.85324,1153.6595Q550.7149,1151.6051,677.6773,1029.4778Q678.0889,1029.0598,678.49896,1028.6416L678.51086,1028.6443C677.15076,1022.2922,676.6681,1017.65594,677.1836,1015.3941C678.40125,1010.4117,685.58466,1002.0535,688.3915,1001.9947C688.3973,1001.9947,688.4032,1001.99445,688.40894,1001.99445L688.42194,1001.99713C688.5988,1001.99445,688.7576,1002.0289,688.8957,1002.09906C689.7915,1002.78595,690.5377,1004.7098,690.5746,1006.47235C690.5961,1007.49567,692.1266,1009.60223,694.2111,1011.86786L694.21124,1011.8708Q708.97687,995.3581,721.789,978.0312L721.8014,978.0339C722.7352,972.17914,724.0781,963.3132,724.8285,958.14325C725.59906,952.8371,727.0006,943.9903,727.77124,938.6844C728.54193,933.3786,729.92847,923.82697,730.67694,917.46295C731.6013,911.0955,733.205,903.4793,734.38,900.6331C734.82587,899.56915,735.1946,898.92255,735.51135,898.9157L735.5161,898.91864C736.6254,898.9157,737.096,906.8199,738.0413,932.2972C738.26685,939.9755,738.59845,947.0844,738.9727,953.0538Q747.009,940.46124,754.0788,927.4644L754.09155,927.46735C754.22,917.43524,754.96814,908.6071,756.32465,904.40546C759.48126,895.16943,759.1775,872.2517,756.1257,869.67053C754.8693,868.6393,751.4986,867.6516,748.49475,867.36194C743.5481,866.93616,743.1886,866.59106,743.40076,859.8862C743.672,856.0012,744.9341,848.92114,746.59344,843.9487C751.3834,828.5071,748.7967,814.454,740.8242,812.6821C740.1467,812.5126,739.3479,812.433,738.45685,812.433C738.4101,812.433,738.363,812.4335,738.3156,812.43384C738.25433,812.4343,738.19244,812.4353,738.1302,812.4365C731.2743,812.5801,719.42303,817.14465,714.91516,821.6892C712.44666,824.11145,710.08453,825.6604,708.96576,825.6841L708.94104,825.68677C708.74023,825.6841,708.58136,825.6333,708.4708,825.52747C707.7511,824.8373,707.2838,819.3804,707.3345,813.3843C707.4655,802.80066,700.56824,768.2062,695.92175,756.8419C693.1298,749.8469,683.84503,735.9347,676.43726,727.4491C673.1832,723.63806,670.4581,719.8157,670.4396,718.9343C670.3288,713.6466,644.53955,686.32605,631.8479,678.12805C629.87964,676.7584,627.72754,675.0404,627.1877,674.52234C626.64764,674.005,623.4195,671.42737,619.83844,668.85754C614.82605,665.2595,613.0042,662.4762,612.01184,657.2068C611.4021,653.3402,608.4637,647.7588,605.7532,644.64197C602.74774,641.29333,600.1718,638.0074,598.24176,635.1484L598.2197,635.1491C596.0693,629.6724,595.66925,628.6098,594.61163,625.6684C594.02405,624.03595,593.3607,622.20624,593.1356,621.6302C591.9587,618.4319,589.9404,611.912,588.8846,607.9136C587.5022,602.5714,587.50745,598.9823,588.9091,593.42615C589.8737,589.5613,590.71173,587.22253,593.6514,580.0461C597.85187,569.83026,598.3475,568.1088,599.2536,560.9659C600.77386,549.03107,600.1923,537.8692,597.54364,527.4883C594.6305,516.12744,589.11176,506.09406,581.4569,498.2569C568.7283,485.22577,550.49786,478.24213,529.20746,478.24213 Z M327.25742,916.78766C328.40384,916.78766,329.00613,918.7176,329.08585,922.53107C329.1752,926.7878,327.19583,929.3754,324.13046,929.43964C324.10904,929.4401,324.0873,929.4405,324.06583,929.44073C324.04843,929.441,324.03116,929.441,324.01352,929.441C323.1758,929.441,322.2593,929.25543,321.28342,928.86664C319.1536,928.2056,319.30368,926.9681,322.5493,921.96246C324.60062,918.5214,326.15652,916.8105,327.2358,916.78766 Z M343.0175,925.5904C344.76443,925.5904,347.00345,926.414,348.23648,927.5959C351.2955,930.52997,351.0574,936.0015,347.88516,936.0678L347.871,936.06793L347.85947,936.07086C346.44644,936.06793,344.12186,933.66046,342.48636,930.8902C339.73886,926.01044,339.90762,925.65424,342.90396,925.5915C342.9246,925.5911,342.94547,925.59064,342.96634,925.5904C342.9833,925.5904,343.0004,925.5904,343.0175,925.5904 Z"/>
</g>
<g style="fill:white; fill-opacity:1.0; stroke-linejoin: miter">
<path d="M91.92321,600.86926L41.724445,600.97314L41.71758,600.9718L43.448017,882.9025L61.172203,882.7037L61.131187,912.08466L16.211596,912.01654L16.051332,912.0159L16.035006,960.43585L16.040392,960.4388Q31.45403,983.56366,50.1849,1005.3267L50.1849,1005.32965C65.45791,1005.2951,80.09481,1005.27765,93.07125,1005.27765C121.92944,1005.27765,142.57523,1005.36383,143.74088,1005.5717L143.74103,1005.5744C144.47653,1005.5717,145.2262,1039.9574,145.7203,1087.2316L145.72687,1087.2345Q145.72687,1087.2316,145.72687,1087.2316L145.7203,1087.2345C145.72412,1087.607,145.72806,1087.983,145.732,1088.36L145.78384,1088.3595Q152.82434,1092.2802,159.97156,1095.9208L159.97171,1095.9237Q159.99509,1095.9344,160.01859,1095.9481L160.02527,1095.9508Q169.108,1100.5729,178.36319,1104.745L178.3642,1104.745C178.43079,1046.3846,179.10147,1006.2786,179.92459,1005.6148C180.48459,1005.2756,199.70555,1004.93365,228.5736,1004.6646C246.9391,1004.4937,269.20865,1004.3525,293.06186,1004.2608C310.4523,1004.19415,326.97128,1004.0855,341.72427,1003.94794C379.01376,1003.60077,405.01855,1003.06683,405.27856,1002.53864C405.8266,1001.6191,409.8592,999.3995,414.07538,997.36395C422.8764,993.471,424.3369,991.07904,424.29755,980.9765C424.2765,975.46844,422.98053,972.8995,417.26562,967.4128L410.25946,960.6436L120.770966,961.76154L120.84128,912.175L75.36178,912.10626L75.40835,882.54376L93.63488,882.3392L91.92321,600.86926 Z"/>
</g>
<g style="fill:white; fill-opacity:1.0; stroke-linejoin: miter">
<path d="M628.30096,514.7147L626.4009,489.7763L649.4309,474.6584L514.0474,415.0891L389.24072,494.4884L443.40063,520.6579L444.75238,538.3959L444.85876,539.7921C444.99347,539.70825,445.1651,539.6277,445.312,539.5427C444.81525,540.34717,444.51227,541.11865,444.57172,541.89905C445.23492,550.60596,480.98248,555.021,524.45734,551.70886C567.9075,548.3981,602.61005,538.6158,601.94684,529.9089C601.88727,529.1284,601.4526,528.41315,600.8578,527.6916C601.0172,527.7716,601.1978,527.8068,601.3376,527.87L601.2311,526.4735L599.87604,508.68744L621.443,493.04248L623.12415,515.1092C620.73175,516.30927,619.1807,518.8934,619.3972,521.7346C619.68335,525.4906,622.9585,528.3078,626.7085,528.0219C630.49506,527.73346,633.2994,524.4532,633.0132,520.6974C632.79675,517.8555,630.8781,515.53644,628.30096,514.7147 Z M524.0005,545.7152C485.42194,548.6544,453.831,546.6333,453.4195,541.2311C453.00787,535.829,483.92865,529.05707,522.50745,526.1179C561.0675,523.17975,592.6699,525.1879,593.08167,530.59033C593.4932,535.9925,562.56085,542.7772,524.0005,545.7152 Z M597.0709,494.3294C591.4656,489.1814,571.7112,476.05353,518.9987,480.07C466.25574,484.08826,448.74957,500.06702,443.9956,506.01038L443.5943,500.74207C443.5943,500.74207,456.96484,476.92798,518.40265,472.24677C579.8345,467.56628,596.6707,489.07935,596.6707,489.07935L597.0709,494.3294 Z"/>
</g>
<g style="fill:white; fill-opacity:1.0; stroke-linejoin: miter">
<path d="M522.49457,525.9493C484.0782,528.876,452.82257,535.6211,453.25085,541.24414C453.67908,546.8666,485.597,548.81067,524.0133,545.88367C562.4116,542.958,593.6786,536.20013,593.2503,530.5775C592.82184,524.95483,560.89233,523.0235,522.49457,525.9493 Z"/>
</g>
<g style="fill:#ff7a6b; fill-opacity:1.0; stroke-linejoin: miter ; stroke:#ff7a6b">
<path d="M518.39435,472.1386C456.92566,476.82172,443.51978,500.65295,443.4995,500.6886C443.489,500.70746,443.48413,500.729,443.4859,500.75012L443.88727,506.01843C443.89056,506.063,443.92102,506.1009,443.96362,506.11395C443.97675,506.1183,443.99042,506.11975,444.00378,506.11853C444.0332,506.11646,444.06116,506.1021,444.08032,506.07812C448.81018,500.1654,466.2837,484.19543,519.007,480.17834C571.69946,476.16333,591.4207,489.28772,596.9974,494.40936C597.0201,494.43005,597.0498,494.43982,597.0792,494.43774C597.0927,494.43652,597.10583,494.43317,597.1184,494.4272C597.15857,494.4077,597.18274,494.36566,597.1793,494.3211L596.7791,489.07104C596.7775,489.0495,596.7696,489.029,596.7564,489.0124C596.73083,488.97968,579.85693,467.45544,518.39435,472.1386 Z"/>
</g>
<g style="fill:#ff7a6b; fill-opacity:1.0; stroke-linejoin: miter">
<path d="M417.41632,782.8945L417.54614,782.8741C417.54706,782.88043,417.5475,782.8864,417.54742,782.8912L417.5475,782.89154L417.41632,782.89496L417.4126,782.8968C417.4124,782.8963,417.4124,782.8962,417.4124,782.89594 Z M395.73352,773.68964C397.03345,773.21,399.35382,772.6796,400.11584,772.72174L400.11816,772.722C400.19873,772.72516,400.2834,772.72845,400.40472,772.73334C400.5597,772.7397,400.76752,772.748,400.9583,772.75507L400.9583,772.75543C401.11993,772.76117,401.32373,772.768,401.47394,772.7719L401.47394,772.7723C402.22375,772.8033,403.03925,772.95123,404.5642,773.3448L404.5644,773.34515C406.30377,773.7974,409.46136,776.05927,410.57294,777.64545L410.5733,777.6458C410.7873,777.9659,411.16235,778.47125,411.4225,778.78827L411.42255,778.78876C411.74164,779.2098,412.00708,779.79767,412.52112,781.3177L412.52112,781.3182C413.1054,783.0278,413.19006,783.46783,413.22534,784.56793L413.22534,784.5683C413.3078,787.4526,412.70178,789.89874,411.30713,792.1861L411.30676,792.1866C410.93512,792.80316,410.5959,793.29083,410.5089,793.36224L410.5053,793.3641C410.4989,793.3669,410.49323,793.3698,410.4879,793.3731L410.4876,793.3736C410.37665,793.4405,410.09412,793.7579,409.83496,794.0689L409.8338,794.0704C409.54987,794.4201,409.00024,794.9488,408.60352,795.2493L408.60352,795.2496C408.19043,795.5444,407.76703,795.9067,407.64545,796.0361L407.6446,796.03705C407.35162,796.3555,406.19788,796.9294,404.9942,797.3736C404.46814,797.5677,403.94104,797.7337,403.49097,797.8383L403.48975,797.8387L403.48645,797.8392C402.72943,798.02875,402.07196,798.1418,401.9389,798.137L401.93677,798.1385C401.81085,798.10126,401.39484,798.1088,401.02863,798.1385L401.0287,798.139C400.29803,798.19745,398.18408,798.0025,397.91614,797.88434L397.91376,797.88556C397.89917,797.87164,397.88477,797.8626,397.87286,797.8559L397.87305,797.85626C397.76593,797.79596,397.4339,797.7308,397.1361,797.686L397.1297,797.68536C396.4936,797.6213,393.49304,796.207,392.94897,795.72284L392.94897,795.7226C392.76123,795.5556,392.3858,795.2122,392.12036,794.9633L392.1184,794.9615C390.34546,793.36066,389.60193,792.2286,388.6693,789.7022C388.04144,787.95856,387.75903,786.64044,387.80096,785.67694L387.80096,785.67535C387.839,784.4644,387.91046,783.535,387.9475,783.39215L387.9441,783.39386L387.9474,783.39044C387.94928,783.3863,387.94946,783.3859,387.95154,783.3808C387.98596,783.2967,388.02594,783.0455,388.05786,782.8123L388.05817,782.81036C388.20618,781.5878,389.62494,778.5091,390.4579,777.60236L390.4594,777.60065C390.61505,777.4261,390.7791,777.23346,390.8216,777.1517L390.82172,777.15204C390.82324,777.14874,390.82385,777.14777,390.82428,777.1468L390.8241,777.14703C390.88605,777.04596,391.52057,776.4229,392.45978,775.53534L392.45917,775.5361C392.65363,775.3743,393.24005,774.98615,393.77216,774.69635C394.10272,774.5164,394.38013,774.363,394.6582,774.2094L394.65833,774.2099C394.8252,774.11725,394.95935,774.0433,395.04462,773.9969L395.04504,773.99713C395.07507,773.9804,395.05,773.99396,395.0782,773.9787L395.0819,773.9766C395.23108,773.8901,395.4538,773.79266,395.73352,773.68964 Z M391.55408,767.0399C391.4967,767.06104,391.46082,767.1035,391.4392,767.1427L391.4394,767.14307C391.38013,767.2506,391.388,767.40784,391.43744,767.5416C391.46716,767.6223,391.46906,767.6847,391.4657,767.71204L391.46222,767.71375C391.42676,767.74475,391.4146,767.7849,391.41248,767.791C391.36005,767.9397,391.35944,768.49445,391.38654,769.0883L391.38678,769.09186C391.43475,769.7526,391.4334,770.2895,391.4085,770.37616L391.4052,770.37775C391.4027,770.3818,391.40057,770.38617,391.3988,770.3901L391.39856,770.39044C391.33618,770.5235,391.33722,770.8591,391.35876,771.14545L391.35895,771.1473C391.39624,771.5651,391.33325,771.64264,391.29492,771.6568C391.22363,771.68317,391.04773,771.64703,390.664,771.4532L390.6631,771.4526C390.01605,771.1324,387.48706,770.1149,387.21185,770.0795L387.2121,770.0799C387.20605,770.0788,387.16858,770.0732,387.13098,770.0871C387.02582,770.12604,387.03766,770.25214,387.04053,770.25104L387.04175,770.2508C387.0609,770.41547,387.2752,771.1856,387.5445,772.0666L387.5445,772.0666C387.8562,773.08417,388.08423,774.04474,388.06274,774.23883L388.06195,774.2493L388.0528,774.52704L386.9574,774.3653L386.95667,774.3653L386.95337,774.3647C385.33673,774.13544,383.98227,773.9754,383.78214,774.0014L383.782,774.002C383.77902,774.0019,383.77573,774.0024,383.77237,774.00287L383.77054,774.0041L383.7404,774.0109L383.73697,774.0125L383.67172,774.0633C383.63358,774.1192,383.65054,774.18585,383.65097,774.1857L383.65097,774.186C383.68155,774.3416,384.0251,775.0444,384.45575,775.82904L384.45575,775.8295C384.65546,776.19525,384.82776,776.5087,384.9851,776.79486C385.08002,776.96783,385.19366,777.1745,385.2492,777.2764L385.24927,777.2767C385.27667,777.3267,385.29962,777.3691,385.31805,777.40326C385.02032,777.49384,384.29248,777.5761,384.12,777.5301L384.12012,777.53033C384.11285,777.528,384.1037,777.5256,384.09833,777.5246L384.0974,777.52435C383.86026,777.47614,382.04214,777.63446,381.75894,777.72845L381.75552,777.73004L381.7488,777.7314L381.7454,777.7331L381.72714,777.741C381.63254,777.79266,381.64114,777.8951,381.64517,777.92426C381.65433,777.9881,381.68912,778.0623,381.72598,778.1297C381.85562,778.3649,382.1376,778.72614,382.3743,778.9023L382.37387,778.90265C382.51334,779.0267,382.90408,779.4283,383.23044,779.8143C383.56326,780.20734,383.92526,780.57733,384.02637,780.65094L384.04193,780.6607L384.04193,780.6612C384.17725,780.75006,384.89807,781.63434,385.10315,781.9401L385.09967,781.9417C384.9231,782.0335,384.50037,782.21576,383.97806,782.4086C383.25626,782.6751,382.12027,783.1419,381.44254,783.43915L381.4404,783.44037L380.2313,783.9965C380.1849,784.0179,380.15445,784.0633,380.1525,784.11444C380.15048,784.1652,380.17722,784.2131,380.22177,784.238L381.72726,785.08075L381.7289,785.08185C382.55582,785.53033,383.2076,785.98334,383.27707,786.09235L383.2756,786.0932C383.28635,786.1506,383.22318,786.2696,382.64896,786.6434L382.64914,786.6436C381.05984,787.6772,380.55588,788.00494,380.47214,788.206L380.47238,788.20636C380.45963,788.2365,380.45236,788.26874,380.4534,788.30316L380.45425,788.3133C380.46066,788.37396,380.5021,788.4123,380.51358,788.4228L380.5137,788.42316C380.71756,788.6115,382.21292,789.1385,382.6099,789.1628L382.61197,789.1628C382.8602,789.174,384.36084,789.6856,384.7102,789.8582L384.70654,789.8599C384.66193,789.935,384.5699,790.0606,384.44592,790.1862L384.4436,790.18866C384.2729,790.37054,383.92148,790.7701,383.55704,791.1833L383.55704,791.1838L383.2969,791.47833L383.29715,791.47845C383.2958,791.4797,383.29227,791.4838,383.2894,791.48785L383.28915,791.4881C382.87766,791.9836,382.32944,792.6055,382.08322,792.8494L382.07968,792.8532L381.6284,793.33405C381.59238,793.3725,381.58188,793.4289,381.60178,793.47784C381.6218,793.5269,381.6685,793.5599,381.72147,793.5621L382.52017,793.59735L382.51932,793.5975L382.5411,793.5983L382.5413,793.5987C382.8304,793.6132,382.68954,793.6059,383.01608,793.62225C383.1118,793.62714,383.53342,793.6484,383.63474,793.6534C383.84488,793.6641,384.031,793.6739,384.20056,793.6834L384.2008,793.68365C384.68146,793.7099,385.30823,793.7325,385.59436,793.7236L385.59436,793.7238C386.2257,793.7271,386.29468,793.8072,386.29407,793.9373C386.29303,794.113,386.16693,794.4224,385.89276,794.97406C384.88245,796.993,384.58612,797.56683,384.64465,797.8055C384.65637,797.8532,384.68,797.89215,384.70984,797.92267L384.70984,797.92267C384.73755,797.9506,384.76782,797.9694,384.79126,797.98285L384.7931,797.9841C384.805,797.99054,384.81818,797.9963,384.82874,797.99994C385.02515,798.0699,385.63495,797.9628,386.20782,797.81L386.2099,797.8094L386.21228,797.80865L386.21228,797.809C387.6474,797.40985,388.08325,797.358,388.16602,797.42096L388.16266,797.4228C388.1712,797.5367,388.09558,797.9836,387.9582,798.49225C387.81958,798.9765,387.71393,799.4632,387.71973,799.59296L387.71973,799.5933C387.72015,799.6036,387.7218,799.6253,387.72943,799.64764L387.726,799.6491C387.7226,799.72736,387.67462,799.9664,387.58667,800.2431C387.49597,800.5289,387.4251,800.8184,387.4265,800.9218L387.42633,800.92194C387.4265,800.9329,387.42737,800.95807,387.437,800.9842C387.47656,801.0915,387.59644,801.08136,387.59827,801.08075L387.5985,801.081C387.69214,801.0766,387.89594,801.0092,388.13306,800.9218C389.15723,800.5439,391.42712,799.5423,391.64862,799.33624L391.64862,799.33673C391.65668,799.3288,391.67285,799.31256,391.685,799.29193L391.69086,799.28046C391.71387,799.23615,391.87775,799.11224,392.09436,799.0324C392.25934,798.9714,392.30792,798.9611,392.32715,798.9649L392.32385,798.9665C392.32812,798.9722,392.3357,798.98566,392.34528,799.0118L392.3454,799.01215C392.37213,799.0844,392.39648,799.2027,392.43292,799.39874L392.43304,799.399C392.596,800.2662,392.73328,801.6108,392.69226,801.9814L392.69202,801.9841C392.66168,802.31757,392.80994,803.95074,392.89716,804.16815L392.89716,804.16815L392.89728,804.1685C392.89905,804.17474,392.9254,804.2448,392.99695,804.26556L392.99695,804.2663C393.04138,804.27936,393.08167,804.26715,393.09442,804.2624C393.0973,804.2614,393.09888,804.2607,393.09857,804.2609C393.10236,804.25946,393.10693,804.2576,393.11035,804.25616L393.11023,804.25665C393.3183,804.1674,394.54102,803.1507,394.66803,802.95355L394.66827,802.9539C394.67365,802.9451,394.6814,802.9323,394.68774,802.9157L394.68744,802.9161C394.73578,802.82477,395.16504,802.4482,395.79742,801.9826L395.7973,801.983L395.93207,801.88873L396.41895,803.47565L396.41876,803.4748L396.4198,803.47833C396.69598,804.3394,396.96887,805.10114,397.07642,805.24066L397.07617,805.24115C397.08197,805.2502,397.14728,805.3343,397.2467,805.30255L397.25232,805.3006L397.25275,805.30084C397.27258,805.2933,397.28815,805.2829,397.2978,805.27606L397.2979,805.2767C397.39856,805.2048,397.66486,804.88153,397.89893,804.5346L397.89905,804.535L397.92462,804.4993L397.92456,804.4992L398.01166,804.37897L398.0119,804.3792C398.01166,804.37885,398.08148,804.28217,398.09064,804.26996C398.66187,803.481,398.85284,803.22504,398.94702,803.1313L398.95087,803.1302C399.29504,803.83246,400.9286,808.111,404.01776,816.4416L404.01788,816.44183L409.0473,829.94C409.0672,829.99347,409.11835,830.02875,409.17554,830.0284C409.1914,830.02814,409.20673,830.0251,409.221,830.0197C409.2583,830.00604,409.28857,829.9765,409.3022,829.9377L409.7768,828.5837L409.77686,828.58405C410.03693,827.8453,410.3852,826.9152,410.5481,826.5125L410.54932,826.50934C410.59637,826.3842,410.68683,826.1401,410.78845,825.866L410.78845,825.866C410.95667,825.4118,411.2025,824.7486,411.42804,824.1474C411.4881,823.98724,411.50806,823.9339,411.56744,823.7763L411.56848,823.774C411.96326,822.66766,412.4632,821.3101,412.67896,820.7419C412.88812,820.191,413.13855,819.75397,413.2265,819.69354L413.2212,819.69586L413.2296,819.6917L413.23352,819.6905C413.29382,819.6756,413.53613,819.7569,413.79077,819.95197C414.05255,820.15265,414.43793,820.3768,414.66022,820.39276L414.65875,820.39386C414.80133,820.42267,414.8991,820.4797,414.9159,820.5042L414.9157,820.5047C414.9303,820.53876,414.9563,820.5606,414.95837,820.56256L414.9585,820.5628C415.23413,820.8151,420.34192,823.6525,421.5915,824.262L421.5943,824.26337C421.8648,824.388,422.04797,824.5264,422.07507,824.5722L422.07477,824.5726C422.07983,824.5848,422.08575,824.59625,422.09167,824.60614L422.09167,824.6064C422.15692,824.7148,422.32953,824.8195,422.47083,824.8736L422.47113,824.87384L422.47437,824.87494C422.4967,824.88275,422.5415,824.8942,422.591,824.8759C422.67865,824.84357,422.6953,824.7587,422.69916,824.7259L422.69916,824.7259C422.74036,824.3693,421.87402,821.95953,417.94983,811.2525L417.94995,811.2526C414.0744,800.64166,413.23206,798.26495,413.19104,797.8101L413.19476,797.809C413.39886,797.8254,413.93054,797.92755,414.51453,798.0992L414.51666,798.0999C415.15253,798.2751,415.7923,798.4141,415.96472,798.3886L415.96503,798.3885C415.97815,798.38666,415.99152,798.384,416.008,798.37787C416.09088,798.3472,416.11542,798.2703,416.1225,798.2299C416.146,798.0943,416.06915,797.8337,415.96057,797.53925C415.7633,797.00494,415.40308,796.2194,414.9756,795.4056L414.97437,795.4035C414.85254,795.1807,414.78668,795.01056,414.76416,794.9205L414.768,794.9195C415.11102,794.86945,416.29034,794.8466,416.44275,794.88947L416.44275,794.88983C416.7439,794.982,418.35254,794.93866,418.5807,794.8553L418.58148,794.8554C418.5822,794.8549,418.5838,794.85443,418.58575,794.8536C418.60046,794.8482,418.64368,794.83014,418.67017,794.78595L418.55396,794.71625L418.67743,794.77216C418.70642,794.70795,418.6801,794.6469,418.67474,794.634C418.63373,794.5346,418.48328,794.3647,418.32605,794.2171L418.32104,794.2126C418.13,794.0501,417.73096,793.5545,417.42804,793.11676C417.11884,792.6635,416.67914,792.06915,416.4301,791.7884L416.43024,791.78876C415.97656,791.2579,415.99377,791.1457,416.0893,791.064L416.0893,791.0643C416.14,791.02045,416.22852,790.9731,416.36755,790.9218C416.4903,790.8765,416.6458,790.83026,416.836,790.7795L416.836,790.77997C417.3313,790.6586,417.76318,790.5865,417.84692,790.60004L417.8465,790.6004L417.84668,790.6003C417.85583,790.60284,417.86304,790.6042,417.86987,790.6054L417.87,790.60565C418.1264,790.649,419.354,790.3117,419.93457,790.0976C420.08777,790.0411,420.23004,789.9816,420.29486,789.9278L420.2951,789.9278C420.29883,789.92426,420.3924,789.85333,420.3529,789.7464C420.3448,789.7247,420.3329,789.7077,420.32648,789.6989L420.32635,789.69867C420.2528,789.5997,419.89075,789.30975,419.5125,789.02057L419.51086,789.01935C419.14307,788.747,418.8429,788.50336,418.76892,788.42413L418.76526,788.42596C418.75732,788.40607,418.74683,788.3913,418.74133,788.38385L418.74146,788.3842C418.6646,788.27936,418.2536,787.93646,417.81134,787.60516L417.80957,787.6038C417.38245,787.2839,417.03467,786.9891,416.94873,786.8924L416.945,786.8941C417.00342,786.7963,417.37823,786.5794,418.85986,785.83624L418.86047,785.836C419.64795,785.43634,420.43036,784.9731,420.5982,784.805L420.60114,784.80194L420.60144,784.8017L420.6015,784.80194C420.64886,784.7513,420.71033,784.68475,420.73474,784.607C420.75415,784.5461,420.75073,784.4816,420.71838,784.42L420.71857,784.4202C420.70038,784.3852,420.67462,784.3548,420.64703,784.3289C420.48474,784.1768,420.03333,783.9891,419.12836,783.6171L419.1281,783.61725C418.35968,783.3018,417.74548,782.99677,417.57104,782.86957L417.56726,782.8713C417.62543,782.7874,417.78394,782.6197,417.9942,782.4594L417.99402,782.4598C418.2987,782.25116,418.5971,781.9788,418.68286,781.8521L418.68298,781.85236C418.73883,781.7701,419.10852,781.43524,419.53088,781.1209L419.531,781.12115C419.93103,780.8315,420.19995,780.59174,420.22736,780.39764C420.2354,780.3403,420.22467,780.28046,420.18738,780.2287C420.18207,780.221,420.17615,780.2142,420.17035,780.2076L420.17047,780.20807C420.0782,780.101,419.93,780.0251,419.80164,780.0385L419.80176,780.039C419.786,780.0402,419.76923,780.0434,419.75244,780.0485L419.7486,780.05035C419.6712,780.06256,419.32758,780.00543,418.9104,779.91425L418.91034,779.9146C418.48486,779.8,417.82227,779.67975,417.4549,779.6391L417.4549,779.63934C416.72015,779.5518,415.42706,779.20575,415.16876,779.0634L415.16504,779.0649C415.20526,778.866,415.57385,778.1646,415.9237,777.72186L415.92383,777.7221C416.48346,777.0174,417.61517,774.97577,417.63525,774.62885L417.50378,774.6213L417.50006,774.623C417.49982,774.62213,417.49994,774.6215,417.50006,774.62103L417.50006,774.6213L417.63525,774.62885C417.6364,774.6121,417.64136,774.5335,417.57703,774.48175C417.56696,774.47345,417.55597,774.46674,417.5448,774.46173L417.5448,774.462C417.52576,774.45306,417.50708,774.4493,417.49713,774.4473C417.33502,774.41815,416.54956,774.49615,415.7121,774.628L415.7121,774.62823C414.94257,774.7337,414.30212,774.8006,414.11688,774.78925L414.1134,774.79095C414.08063,774.63336,414.1834,774.0506,414.42725,773.455L414.4287,773.4506C414.5221,773.1988,414.74762,772.6098,414.92328,772.15375L414.9237,772.153L415.24207,771.31244C415.26038,771.26434,415.24963,771.2098,415.21417,771.17194C415.1789,771.1341,415.12512,771.11993,415.07556,771.1351L413.5661,771.59796L413.5667,771.5981C412.74207,771.8392,411.7287,772.16595,411.30902,772.32074C411.06525,772.4106,410.85992,772.4743,410.7378,772.5041L410.73395,772.5058C410.7434,772.27325,410.7755,771.7613,410.82965,771.1801L410.82965,771.17914C410.8979,770.38275,410.98163,769.38837,411.0105,768.9451L411.0105,768.9454C411.0475,768.56085,411.02924,768.2128,410.9478,768.07513C410.93103,768.04645,410.8896,767.9889,410.81305,767.9794L410.81305,767.97974C410.80536,767.9784,410.79865,767.9783,410.79712,767.9783L410.78693,767.9784C410.77234,767.9789,410.76123,767.9812,410.75275,767.98303L410.75262,767.98315C410.7331,767.98706,410.71143,767.99414,410.693,768.00116C410.2926,768.14886,408.26392,769.3547,408.07007,769.6031L408.06934,769.6036C408.06476,769.6098,408.06024,769.6164,408.0561,769.62286L408.0558,769.6235C407.95184,769.76324,407.4577,770.054,407.1297,770.1751C407.08313,770.1923,407.04663,770.2032,407.0199,770.21014L407.01617,770.21185C406.85693,769.6893,406.5067,767.85205,406.51392,767.61206L406.51416,767.6124C406.5321,767.22253,406.2959,766.0808,406.1413,765.87744C406.12958,765.86206,406.08673,765.8071,406.0125,765.8032L406.011,765.8032C406.00195,765.80286,405.99225,765.8031,405.9807,765.8047L405.9804,765.8052L405.9422,765.8154C405.93372,765.8192,405.92407,765.82434,405.91724,765.82837L405.9167,765.82874C405.6778,765.97424,403.98206,767.82654,403.70038,768.2414L403.69934,768.24274C403.60962,768.3785,403.52197,768.47015,403.46582,768.51385C403.35913,768.31134,403.09576,767.68774,402.81958,766.93945C402.4953,766.06104,402.1916,765.37146,402.03546,765.23535L402.03564,765.2357C402.0196,765.22144,401.9912,765.19995,401.9527,765.1907L401.95245,765.1907C401.91437,765.18164,401.8777,765.1846,401.8468,765.19226L401.84637,765.1929C401.8371,765.1947,401.82422,765.1987,401.81573,765.2019C401.6529,765.2617,401.4552,765.49646,401.3081,765.73303L401.30646,765.7356C400.83093,766.5426,399.49432,768.8714,399.24542,769.31146L399.2417,769.3184C399.1618,769.48114,399.12366,769.5445,399.10266,769.56757C399.0841,769.56,399.04742,769.5389,398.9718,769.4869C398.84467,769.39886,398.40698,768.92194,398.00586,768.3914L398.00543,768.3908C397.62836,767.89856,397.2303,767.41907,397.11584,767.3364L397.11572,767.3363C397.11365,767.33484,397.11188,767.3335,397.11023,767.3324L397.11005,767.3329C397.04224,767.2833,396.73248,766.93555,396.4074,766.5298L396.4074,766.53015C396.1424,766.18005,395.82275,765.8557,395.63843,765.8091L395.63824,765.80896C395.60815,765.8014,395.56384,765.79565,395.5171,765.81274C395.48944,765.823,395.46533,765.8396,395.4478,765.85474L395.4477,765.855C395.31366,765.9719,395.2113,766.32446,395.16406,766.6472L395.16418,766.6476C395.1106,767.011,395.05103,767.3198,395.0304,767.37256L395.0304,767.3728C395.02832,767.3772,395.02606,767.38245,395.02545,767.3844L395.02563,767.3845C394.99023,767.4773,394.88458,767.9602,394.78467,768.46246L394.7843,768.4644C394.6792,769.0363,394.63397,769.20197,394.59357,769.24066C394.58063,769.24054,394.5464,769.2331,394.4605,769.1966L394.45782,769.1954C394.2926,769.1296,394.16394,769.0179,394.143,768.97906L394.143,768.97943C394.08087,768.811,393.87787,768.72186,393.7262,768.70514L393.7121,768.7044C393.62445,768.70404,393.54968,768.6491,393.53412,768.60675C393.52985,768.5955,393.52502,768.5854,393.52087,768.57745C393.4436,768.4334,393.0547,768.1092,392.6781,767.84924C392.3034,767.5907,391.99396,767.32874,391.9344,767.24817L391.9328,767.24915C391.89758,767.1538,391.8227,767.0637,391.7154,767.0338L391.7154,767.03394C391.66388,767.01904,391.60858,767.0198,391.55408,767.0399 Z"/>
</g>
<g style="fill:white; fill-opacity:1.0; stroke-linejoin: miter">
<path d="M396.55164,774.31903C395.18976,774.8215,393.79236,775.5339,393.31146,776.0732L393.31146,776.07367C393.12592,776.27045,392.93622,776.43036,392.87506,776.45306L392.87054,776.4549C392.65234,776.54,391.81323,777.34735,391.71802,777.54913C391.6892,777.5993,391.49072,777.8305,391.24646,778.09076C390.6399,778.73724,389.03912,782.21124,388.9417,783.0922C388.90216,783.4493,388.85565,783.7503,388.83606,783.8035L388.83606,783.8039C388.83215,783.81256,388.82935,783.8206,388.82758,783.8261L388.82758,783.82623C388.79492,783.9322,388.75543,784.3754,388.73035,784.8276L388.73035,784.8276C388.72693,784.8886,388.7168,785.06903,388.71326,785.1319C388.7021,785.3305,388.70746,785.2309,388.69678,785.4239L388.6969,785.42426C388.68176,785.6939,388.66992,785.9289,388.67035,786.03656L388.67035,786.0369C388.614,787.113,389.7379,790.612,390.511,791.8034C391.00458,792.5782,392.13666,793.842,392.7627,794.3182L392.76288,794.31854C393.0219,794.517,393.38678,794.83246,393.57953,795.02216L393.58112,795.0236C394.23767,795.64923,397.3222,796.9506,398.4474,797.09515L398.44763,797.0954C398.9865,797.16754,399.57184,797.2039,399.73096,797.15594L399.7323,797.15546C399.7353,797.1546,399.74194,797.1523,399.74506,797.1512C399.8308,797.11957,399.8869,797.1484,399.89233,797.1552L399.89233,797.1556C399.91888,797.1882,399.95325,797.2048,399.97296,797.2127L399.97314,797.21295C400.29657,797.34357,402.39417,797.1165,402.98376,796.899C403.21136,796.8149,403.40234,796.79974,403.4461,796.8183L403.44507,796.81915C403.4749,796.84186,403.50702,796.85065,403.5277,796.8547C403.69635,796.8892,404.16174,796.7784,404.5935,796.6192C405.02533,796.4598,405.45087,796.24164,405.5567,796.10565C405.56927,796.08966,405.58728,796.0634,405.59546,796.0279L405.594,796.02875C405.6198,795.9814,405.80096,795.8591,406.0683,795.76044C406.86908,795.465,408.39465,794.3427,409.16125,793.48676L409.16144,793.487C410.8687,791.6186,412.2306,788.5463,412.2785,786.4626L412.27856,786.46295C412.28943,786.0539,412.31506,785.69366,412.3449,785.62213L412.34497,785.6225L412.35034,785.6082C412.5174,785.1066,412.05835,782.98517,411.52618,781.5015L411.52594,781.5004C410.8393,779.6402,410.17816,778.44586,409.31,777.5756L409.31024,777.576C408.99646,777.25543,408.74323,776.9765,408.69806,776.9023L408.69733,776.9029C408.6905,776.88446,408.68085,776.8687,408.67438,776.85895L408.67426,776.8587C408.59668,776.7442,408.23083,776.4545,407.85944,776.1888L407.85956,776.18915L407.8578,776.1877L407.85687,776.18695C407.49927,775.93097,407.20978,775.7121,407.13458,775.64056L407.13098,775.6423C407.11377,775.6082,407.08496,775.587,407.0799,775.5839L407.0799,775.5844C406.98334,775.5146,406.34558,775.201,405.62567,774.86957L405.62506,774.8693C403.8966,774.08417,402.08948,773.6202,400.75177,773.64825C400.20715,773.65607,399.7284,773.65216,399.6466,773.6324L399.615,773.76434L399.6394,773.6309C399.63727,773.63055,399.6327,773.6296,399.62598,773.6286L399.62604,773.62897C399.50214,773.6132,399.00513,773.6707,398.55115,773.74774L398.55054,773.748C397.96362,773.8504,397.2564,774.0589,396.55164,774.31903 Z"/>
</g>
<g style="fill:#92b5f9; fill-opacity:1.0; stroke-linejoin: miter">
<path d="M286.06955,743.1116C285.9993,743.1376,285.96347,743.21545,285.98935,743.28564L287.67422,747.85034L289.35904,752.4147C289.3715,752.44836,289.39676,752.4758,289.42953,752.49084C289.462,752.506,289.49954,752.5073,289.5331,752.4949L332.61807,736.5918L375.7026,720.68896C375.73642,720.67664,375.76376,720.65125,375.7789,720.61865C375.7938,720.5858,375.79526,720.5487,375.78293,720.515L374.098,715.9502L372.41342,711.3862C372.38742,711.3158,372.30954,711.28,372.2394,711.3059 Z"/>
</g>
<g style="fill:#92b5f9; fill-opacity:1.0; stroke-linejoin: miter">
<path d="M295.3104,768.1468C295.24014,768.1728,295.2043,768.2507,295.2302,768.321L296.91483,772.8851L298.59995,777.4505C298.61234,777.4842,298.63773,777.51166,298.67026,777.5267C298.7029,777.54156,298.7402,777.5429,298.77396,777.5306L401.4027,739.64844C401.47302,739.62256,401.5089,739.5448,401.48297,739.47437L399.79816,734.91003L398.11334,730.3457C398.08752,730.2754,398.00946,730.2396,397.93933,730.2655 Z"/>
</g>
<g style="fill:#92b5f9; fill-opacity:1.0; stroke-linejoin: miter">
<path d="M272.30215,705.8125C272.25705,705.8291,272.23404,705.87915,272.25052,705.92444L273.94553,710.51624L275.64554,715.12195C275.65353,715.1439,275.66977,715.1614,275.69083,715.171C275.71176,715.18054,275.7357,715.1815,275.75742,715.17346L319.9337,698.8208L319.9338,698.8213L364.11478,682.48193C364.15982,682.4652,364.18283,682.41504,364.16617,682.37024L362.48154,677.8058L360.79684,673.24146C360.78024,673.1963,360.73026,673.1731,360.6851,673.18994 Z"/>
</g>
<g style="fill:#92b5f9; fill-opacity:1.0; stroke-linejoin: miter">
<path d="M276.89688,718.26074C276.87527,718.2687,276.8575,718.2849,276.848,718.306C276.8383,718.3268,276.8373,718.3507,276.8453,718.37256L278.53018,722.937L280.21524,727.5023C280.22318,727.5238,280.23947,727.5414,280.26047,727.551C280.28128,727.56055,280.3052,727.56165,280.327,727.5537L374.79544,692.68396C374.81717,692.6759,374.8348,692.6594,374.84445,692.6384C374.8541,692.61743,374.85477,692.59314,374.8467,692.57153L373.14438,688.04517L373.14438,688.0449L371.43344,683.53735C371.41647,683.4927,371.36673,683.47,371.322,683.4866L324.1138,700.864L324.11398,700.8644L276.89688,718.26074 Z"/>
</g>
<g style="fill:#92b5f9; fill-opacity:1.0; stroke-linejoin: miter">
<path d="M281.49173,730.709C281.47006,730.71716,281.45255,730.7334,281.44284,730.7543C281.4332,730.77527,281.43216,730.7992,281.44022,730.8209L283.12485,735.38513L284.8099,739.9501C284.8179,739.9719,284.8342,739.9896,284.8552,739.99927C284.87613,740.0089,284.90005,740.00977,284.92172,740.0016L352.14218,715.18933C352.1639,715.1814,352.18155,715.1648,352.19107,715.1438C352.20084,715.1228,352.20163,715.09863,352.19345,715.0773L350.4913,710.55054L350.49112,710.5503L348.78036,706.04297C348.7634,705.99817,348.71378,705.9756,348.66916,705.9923L315.08475,718.34106L315.08475,718.34155L281.49173,730.709 Z"/>
</g>
<g style="fill:#92b5f9; fill-opacity:1.0; stroke-linejoin: miter">
<path d="M290.68137,755.6056C290.6362,755.6222,290.6132,755.67236,290.6298,755.7174L292.34012,760.3508L294.05063,764.9852C294.05875,765.00684,294.07486,765.0244,294.09592,765.0342C294.1169,765.04395,294.14078,765.0449,294.1625,765.03687L385.44934,731.34106C385.4945,731.32446,385.51764,731.2744,385.50092,731.2294L383.79068,726.59595L382.0806,721.96277C382.06406,721.9176,382.014,721.89453,381.96884,721.91125 Z"/>
</g>
<g style="fill:#92b5f9; fill-opacity:1.0; stroke-linejoin: miter">
<path d="M349.43814,762.3635L299.92184,780.64044C299.87674,780.65717,299.85367,780.7071,299.87033,780.75226L301.55502,785.3166L303.23984,789.88104C303.24796,789.9025,303.2642,789.92035,303.28513,789.9299C303.30606,789.9395,303.33,789.9405,303.35178,789.93243L352.83023,771.63824L402.28986,753.33496C402.3346,753.31836,402.35773,753.2689,402.34167,753.22375L400.70868,748.6719L400.70868,748.6719L399.0669,744.1387C399.0589,744.1168,399.04266,744.099,399.02155,744.08923C399.0006,744.0796,398.97656,744.0786,398.95483,744.0867L349.43814,762.3635 Z"/>
</g>
<g style="fill:#92b5f9; fill-opacity:1.0; stroke-linejoin: miter">
<path d="M319.433,670.3428C282.27383,684.05884,251.77751,695.36145,251.34386,695.5846L251.34364,695.5851C251.34593,695.5835,251.34718,695.5829,251.34727,695.5824L251.3448,695.58374C251.33537,695.58826,251.30461,695.60815,251.29536,695.6421L251.29228,695.6647C251.29216,695.6753,251.2935,695.68274,251.29536,695.6904C251.41441,696.18396,264.308,731.24133,280.0712,773.9476L308.90634,852.0678C308.9142,852.08966,308.93045,852.10724,308.9515,852.11676C308.97244,852.1265,308.9965,852.1274,309.01804,852.1193L352.62802,836.02155C376.44882,827.2292,395.99048,819.98566,396.29095,819.84283L396.29205,819.84247C396.29785,819.83954,396.3036,819.83636,396.3105,819.83075L396.3354,819.8C396.3482,819.7736,396.34387,819.7448,396.3427,819.7398L396.34283,819.7403C396.3167,819.5832,395.61536,817.64764,394.74402,815.3692L393.11487,811.08295C393.0979,811.0384,393.04816,811.0158,393.00342,811.0323L353.2001,825.6923L353.2003,825.69244L313.47244,840.3089L311.04636,833.98834L311.04654,833.98834C309.6979,830.46295,298.13608,799.3094,285.3536,764.7212C267.87424,717.40735,262.47995,702.67053,262.25266,701.70874L262.24997,701.7101C263.07138,701.27966,276.91946,696.1228,321.23685,679.7648L322.71024,679.22144L383.04373,656.95056L408.66754,726.37146L434.29156,795.79315L428.6151,797.919L428.615,797.9194L422.84882,800.0948C422.80402,800.11163,422.78113,800.1613,422.79773,800.20624L424.38025,804.4936L425.9629,808.78143C425.971,808.8034,425.98724,808.821,426.00818,808.83075C426.029,808.8403,426.05316,808.841,426.07477,808.8332L435.61835,805.3106L445.16205,801.7879C445.20703,801.7712,445.2301,801.72125,445.21356,801.6761L416.3952,723.4723L387.56793,645.28687C387.55988,645.26514,387.54352,645.24756,387.52258,645.2378C387.50165,645.22815,387.47772,645.2273,387.45605,645.23535 Z"/>
</g>
<g style="fill:#92b5f9; fill-opacity:1.0; stroke-linejoin: miter">
<path d="M322.525,814.92487L347.79398,805.5981L373.0627,796.2713Q373.41116,797.215,373.7593,798.1585Q348.49057,807.48566,323.2219,816.8129Q322.8735,815.86884,322.525,814.92487"/>
</g>
<g style="fill:white; fill-opacity:1.0; stroke-linejoin: miter">
<path d="M259.19223,584.5399C257.1979,584.24207,255.36714,585.09644,253.51225,587.23083C253.04451,587.77356,252.52834,588.3259,252.35326,588.45886C252.17796,588.5923,251.92116,588.88367,251.7694,589.10095C251.61772,589.3185,251.15163,589.78784,250.73341,590.1444C249.08925,591.5377,248.48372,592.1261,247.93776,592.8878C247.61662,593.3301,247.10619,593.9734,246.79198,594.32947C246.49019,594.6908,246.196,595.0702,246.1533,595.1708C246.10524,595.2838,245.86418,595.5375,245.60881,595.75525C245.35301,595.973,245.12273,596.20166,245.09071,596.277C245.0587,596.3523,244.8514,596.56104,244.6119,596.7411C244.38472,596.9264,244.042,597.3148,243.87108,597.6128C243.3702,598.4087,242.29216,599.76074,241.78838,600.2141C241.34871,600.621,239.8423,601.9684,238.71315,602.9874C238.3773,603.28955,237.99284,603.6012,237.86253,603.6644C237.11092,604.07214,235.32957,606.2079,234.44249,607.7743C234.14485,608.3004,233.77055,608.86816,233.61507,609.02466C233.45427,609.1936,233.22066,609.5692,233.09273,609.8707C232.76216,610.6498,230.6551,613.938,230.21025,614.35706C230.00844,614.5531,229.62639,614.99927,229.36604,615.3336C229.1054,615.66785,228.60213,616.3292,228.25249,616.8037C227.8903,617.27295,227.49748,617.744,227.36882,617.83765C227.0721,618.0824,225.76741,620.21277,225.07695,621.59546C224.4131,622.9154,223.79979,623.87146,223.26234,624.47375C223.0392,624.72,222.76445,625.12256,222.65785,625.374C222.55116,625.62524,222.2444,626.10315,221.98405,626.4375C221.72353,626.772,221.17818,627.6378,220.7954,628.365C220.40007,629.08704,220.0294,629.7157,219.94725,629.7698C219.8362,629.8562,219.59212,630.2567,218.14757,632.89185C217.04137,634.8694,216.34438,635.46326,215.67763,634.9728C215.40807,634.76953,214.88045,633.56665,214.96571,633.3655C214.99254,633.30273,214.94106,632.96936,214.84679,632.63293C214.75218,632.29626,214.64995,631.73376,214.60384,631.3878C214.48708,630.3002,214.37532,628.6063,214.39397,628.3176C214.39717,628.17065,214.39436,627.93225,214.37416,627.8053C214.23866,627.0061,214.31206,624.9463,214.50102,624.1515C214.58412,623.81616,214.68428,623.2654,214.71712,622.90857C214.82661,621.917,215.59267,618.6089,215.90202,617.8799C216.04427,617.51013,216.17488,616.9575,216.19167,616.6383C216.25166,614.8546,216.46196,614.0095,217.29662,612.2876C219.18987,608.3158,220.01253,606.79626,220.46794,606.35205C220.72163,606.1039,221.21227,605.437,221.56895,604.8767C222.0858,604.04297,222.2296,603.7036,222.36882,602.9917C222.60493,601.87573,222.49449,599.5155,222.15675,598.319C221.71751,596.76807,220.56459,595.6411,219.22487,595.44324C218.56465,595.3562,217.10197,595.83276,216.95268,596.1846C216.90483,596.2977,216.6244,596.60876,216.34749,596.87683C215.9134,597.271,215.65318,597.70935,214.83998,599.3811C214.3043,600.5034,213.64003,601.71936,213.3509,602.08606C213.07451,602.458,212.67513,603.1189,212.48317,603.5713C212.29121,604.0238,211.8474,604.755,211.4905,605.2113C211.13362,605.66797,210.74327,606.27356,210.62578,606.5498C210.49059,606.83374,210.23772,607.2899,210.04149,607.5773C209.81679,607.8971,209.50404,608.6693,209.1974,609.6365C208.77711,610.94116,208.58339,611.36304,207.93806,612.39417C207.28023,613.42004,206.7379,614.6284,204.33073,620.2655C200.99037,628.1018,201.23216,627.0773,201.86598,630.3716C202.30626,632.72375,202.33226,632.94226,202.43285,634.0676C202.4778,634.5908,202.55653,635.5586,202.62358,636.2394C202.67784,636.9149,202.7628,637.58875,202.81532,637.7445C202.87312,637.8877,202.88454,638.0707,202.85802,638.1334C202.82588,638.209,202.87004,638.5242,202.94472,638.83765C203.06645,639.3196,203.35097,641.2346,203.5504,642.8616C203.61327,643.37756,203.7697,646.08374,203.80067,647.26855C203.82576,648.25793,203.73997,649.33374,203.60664,649.64795C203.54802,649.78613,203.50792,650.1251,203.50182,650.41895C203.50099,650.70044,203.33937,651.64014,203.13652,652.5034C202.83665,653.8739,202.72105,654.1809,202.31816,654.7811C202.04893,655.171,201.6743,655.7388,201.46205,656.06396C201.25536,656.3767,200.93785,656.77576,200.74672,656.9468C200.57338,657.11035,200.26448,657.45386,200.0718,657.6985C199.8791,657.9429,199.41664,658.47314,199.02007,658.8832C198.62877,659.2809,198.14513,659.8613,197.93843,660.17395C197.52809,660.75635,196.31383,662.07996,196.04729,662.219C195.9525,662.26746,195.42384,662.81445,194.88106,663.4292C193.44737,665.0604,193.06154,665.4453,192.7397,665.67944C192.57518,665.7876,192.32329,666.0663,192.1718,666.2838C192.02037,666.50134,191.47906,667.04297,190.97513,667.4962C190.45343,667.9569,190.01044,668.407,189.97299,668.495C189.93585,668.5829,189.7107,668.7988,189.47635,668.9662C189.24213,669.1338,189.02771,669.3246,189.00116,669.38745C188.89972,669.6262,185.62964,672.5095,185.42365,672.5408C185.35718,672.557,185.17874,672.7333,185.04517,672.9436C184.7291,673.37305,183.66623,674.3751,183.328,674.54297C183.19736,674.6062,182.98825,674.7844,182.86337,674.9391C182.73828,675.0935,182.44705,675.3259,182.24142,675.46094C182.0231,675.59094,180.99902,676.4315,179.9714,677.31555C177.19061,679.7092,176.49683,680.1564,172.77286,681.94214C168.11642,684.17786,166.66794,684.58655,164.3924,684.3921C163.72186,684.32996,162.86108,684.2612,162.45596,684.23755C162.06863,684.20667,161.19547,684.13257,160.52478,684.0703C159.84882,684.0209,159.18738,684.0071,159.03708,684.047C158.8938,684.10474,158.711,684.1162,158.6482,684.0895C158.58527,684.063,157.7761,684.3275,156.8613,684.6659C155.9411,685.01685,155.16226,685.2798,155.11197,685.2584C155.07422,685.24255,154.49274,685.5294,153.81833,685.89575C153.16156,686.25476,152.5622,686.5491,152.50125,686.55286C152.4404,686.55664,151.79434,686.8905,151.0629,687.3218C150.33643,687.7401,149.29507,688.3065,148.75488,688.5665C148.2143,688.82654,147.64197,689.162,147.46677,689.2954C146.88919,689.7472,143.6673,691.5388,142.62387,691.97095C142.18887,692.15686,141.52332,692.46765,141.13855,692.67505C139.96658,693.3048,133.33936,700.81995,134.65982,701.52893C135.98444,702.255,137.08865,702.13196,137.13562,702.1813C141.07391,706.2781,144.1459,701.6632,160.18088,708.468C175.76361,715.0813,188.5401,720.4441,188.56158,720.3939C188.5882,720.33093,188.76178,720.27136,188.95712,720.26526C189.1453,720.24133,189.9302,720.1741,190.68994,720.0963C191.46225,720.02356,192.59297,719.91003,193.20232,719.87195C193.81694,719.8213,194.41713,719.73486,194.5298,719.67883C194.64262,719.6229,194.77513,719.59033,194.8379,719.61694C194.92592,719.6543,195.72685,719.5492,196.70674,719.37195C198.3763,719.072,199.247,718.9076,199.4742,718.82605C199.87001,718.6974,202.22664,718.5259,202.87206,718.5775C203.18599,718.6067,203.609,718.62305,203.82747,718.59717C204.05879,718.5768,204.30434,718.5919,204.3673,718.61865C204.50542,718.67725,207.00218,718.595,207.74922,718.5116C207.968,718.4856,208.58275,718.4353,209.13109,718.4011C209.67943,718.36694,210.43205,718.2709,210.80107,718.2051C211.17546,718.1267,211.69127,718.06396,211.97823,718.05225C212.24709,718.0477,212.79366,717.98315,213.19301,717.9155C213.59248,717.84766,214.30202,717.74817,214.77681,717.7124C215.25719,717.66406,215.96141,717.57715,216.34825,717.50415C216.93388,717.3821,217.9912,717.26746,219.45149,717.14575C220.3102,717.0801,224.167,716.93726,224.25505,716.9745C224.31795,717.0012,224.46297,716.9739,224.58107,716.9053C224.7116,716.84204,224.9734,716.8197,225.17055,716.844C225.3625,716.881,226.34666,716.86865,227.35918,716.82385C228.37721,716.7665,229.34843,716.7484,229.5207,716.7622C229.70534,716.7815,230.18571,716.73303,230.59035,716.6527C231.00069,716.55994,231.48979,716.4558,231.68309,716.41943C232.3603,716.2915,233.32054,716.09094,234.1407,715.90515C234.59386,715.8157,235.36046,715.6516,235.84404,715.5604C236.32246,715.48157,237.01738,715.3468,237.37386,715.27563C237.73033,715.20435,238.27504,715.10925,238.57246,715.07227C239.88402,714.917,242.47997,714.5653,243.13399,714.4573C243.53346,714.38965,244.10863,714.29236,244.40605,714.2556C244.93999,714.18555,246.3174,713.91003,246.84035,713.7612C246.97826,713.71594,247.66417,713.5326,248.36064,713.32385C249.05193,713.1277,249.83452,712.92615,250.09422,712.8733C251.17085,712.67725,251.41264,712.6317,251.81938,712.5819C252.0504,712.5613,252.48064,712.4917,252.78862,712.4298C253.07878,712.3749,253.8564,712.2897,254.51424,712.24255C255.3116,712.18054,256.10153,711.9966,256.90182,711.68396C258.42313,711.0691,259.0535,710.3876,260.22488,708.08167C260.65378,707.21094,261.11874,706.42944,261.24033,706.3179C261.369,706.22437,261.65982,705.78406,261.89664,705.3655C262.41306,704.428,263.5516,702.9684,263.90756,702.7932C264.04355,702.7175,264.34915,702.417,264.59366,702.12036C266.3746,699.8804,266.9658,699.25635,267.88284,698.5631C269.05026,697.66406,271.5112,695.5353,272.2344,694.7744C274.3597,692.562,274.81564,691.73206,274.54642,690.6542C274.37027,689.9861,273.69516,689.16565,273.1171,688.9203C272.67722,688.73376,271.96426,687.89746,271.96664,687.54224C271.95908,687.4203,272.36374,686.25745,272.85757,684.95447C273.81302,682.42346,274.68985,679.5182,274.87894,678.2339C274.9437,677.8019,275.08694,677.25464,275.1829,677.02844C275.52426,676.2241,275.33432,674.7495,274.68375,673.2423C274.36014,672.4673,274.03152,671.8087,273.96866,671.7822C273.89334,671.75024,273.69687,671.44434,273.5038,671.09534C273.31802,670.7645,273.07095,670.3335,272.9628,670.1688C272.85477,670.0044,272.42203,669.3462,272.00943,668.7113C270.73178,666.76025,270.4506,666.37415,269.98978,665.8523C269.7938,665.6504,269.26102,665.0536,268.82547,664.5426C268.3718,664.0387,267.95255,663.5935,267.87717,663.5615C267.73904,663.5029,266.42343,662.02527,265.55386,660.9297C265.26224,660.5685,264.49716,659.6803,263.8655,658.9674C263.2393,658.24194,262.55325,657.44666,262.3552,657.21423C261.89066,656.63135,260.97342,656.2422,259.83658,656.16003C258.83426,656.0758,257.41116,656.10974,257.02078,656.2258C256.7325,656.31116,253.97246,656.4894,252.21434,656.5438C251.55473,656.5603,250.90788,656.5825,250.78065,656.60266C250.65343,656.6228,250.105,656.657,249.56206,656.6787C249.01878,656.7002,248.40944,656.7384,248.19633,656.7517C247.97765,656.77747,247.32716,656.84265,246.72496,656.89844C246.14098,656.9474,245.3579,657.0449,245.00142,657.11633C243.70284,657.3805,242.7545,657.37866,242.12093,657.12463C241.34352,656.8242,241.14711,656.51843,240.61958,654.8263C240.26591,653.66785,240.2224,653.07104,240.45198,651.552C240.56749,650.75574,241.83977,648.1072,242.2813,647.7311C242.48506,647.5654,243.25655,646.7953,244.00307,646.01465C244.76231,645.23975,245.7357,644.27356,246.1646,643.8922C246.59868,643.4978,247.04878,643.0659,247.16856,642.9238C247.2881,642.78186,247.73149,642.43604,248.14806,642.1532C249.20506,641.4452,249.25148,641.4055,250.73112,640.1206C252.48409,638.6101,252.8271,638.3257,253.24596,638.07336C253.48723,637.9238,254.14091,637.2224,254.98347,636.2157C255.28514,635.8541,255.62587,635.43506,255.76344,635.2859C256.1509,634.8274,258.12936,633.2053,258.60367,632.9617C258.85226,632.8301,259.35294,632.52356,259.69284,632.28186C260.05057,632.0333,260.55466,631.6837,260.84256,631.4946C262.09995,630.66394,262.69388,630.2782,262.84756,630.1952C262.9371,630.15906,263.14804,630.0112,263.31058,629.8729C263.46805,629.7468,263.9045,629.48694,264.2731,629.31726C264.94943,628.98157,265.79904,628.48193,266.57864,627.93774C267.6981,627.1522,268.26517,626.82947,269.04367,626.46277C270.34116,625.8865,272.05502,624.9231,273.48935,623.9896C274.86996,623.07764,275.99557,622.4874,277.93015,621.63245C278.59055,621.3346,279.6284,620.81104,280.24924,620.46655C284.30826,618.1703,285.90445,617.3795,286.20596,617.50745C286.36954,617.57666,288.2227,616.4946,288.7087,616.04834C288.99277,615.7981,289.50174,615.3319,289.84317,615.0171C290.18442,614.70215,290.51108,614.35144,290.55386,614.251C290.5964,614.1504,290.8749,613.80896,291.17337,613.4906C292.3788,612.2228,293.30814,609.9623,293.27408,608.4352C293.21024,606.1393,290.98026,604.02136,288.9233,604.2904C288.09195,604.39734,286.53983,604.9103,285.84915,605.31433C285.554,605.4856,284.63223,605.91003,283.81625,606.2605C282.99478,606.6238,281.90482,607.09546,281.3981,607.3104C280.87393,607.53296,280.01987,607.86743,279.49173,608.02905C278.95822,608.2031,278.05246,608.58984,277.49075,608.90027C276.91653,609.2052,275.81033,609.71436,275.0228,610.0327C274.25296,610.3436,273.15244,610.84033,272.59592,611.1382C271.66574,611.6185,270.24478,612.276,269.09372,612.75146C268.8431,612.8529,268.4763,613.0531,268.28317,613.19336C268.07755,613.3285,267.75546,613.45874,267.55472,613.4774C266.655,613.5702,264.24057,614.08765,263.44925,614.3451C260.8729,615.2095,257.74258,616.6096,256.6592,617.38086C255.6165,618.1249,252.3167,619.6455,248.00291,621.38916C245.3178,622.47424,244.52882,622.86597,243.14653,623.85144C242.97124,623.9845,242.45482,624.43274,242.02269,624.8572C240.03065,626.7555,239.41374,627.1609,238.91096,626.94763C238.70988,626.8623,238.51576,626.6908,238.48293,626.55835C238.35963,626.15,238.72191,625.1914,239.40825,624.1334C239.78273,623.56555,240.3293,622.522,240.63326,621.8058C240.93184,621.10205,241.29161,620.3948,241.44164,620.251C241.57912,620.10144,242.02312,619.3705,242.42891,618.62317C242.83492,617.8761,243.49617,616.8071,243.89046,616.2627C244.27739,615.7001,244.69456,615.03186,244.81184,614.75525C244.9291,614.4789,245.30702,613.86804,245.67458,613.38635C246.02434,612.91187,246.76433,611.8319,247.29369,611.00354C248.34749,609.35986,248.68977,608.86743,249.12373,608.3695C249.28969,608.18787,249.77876,607.5946,250.2285,607.0587C250.67125,606.5051,251.19804,605.928,251.407,605.7495C251.59813,605.5786,251.90697,605.2351,252.08205,604.9979C252.8008,603.9684,253.80894,602.6759,254.01262,602.5104C254.1415,602.4166,254.48378,601.9243,254.77788,601.44104C255.06462,600.9398,255.46422,600.3828,255.64821,600.194C255.83934,600.0228,256.15512,599.59326,256.34952,599.2755C256.55966,598.9198,257.24387,598.21643,258.0389,597.53064C258.88785,596.8231,259.54874,596.1394,259.82687,595.6941C260.08884,595.28625,260.69894,593.88416,261.32584,592.2667C262.36508,589.60864,262.39523,589.5027,262.37045,588.6172C262.32004,587.5133,261.72952,586.2837,260.78708,585.3944C260.13058,584.7749,259.8774,584.6377,259.19223,584.5399L259.191,584.5393 Z M258.53146,673.77295C258.92014,674.21985,259.30356,674.67896,259.3774,674.7844C259.94302,675.5139,260.6013,676.16394,261.10434,676.48145C262.14084,677.11426,262.53763,677.7866,262.59763,679.04297C262.6663,680.24365,262.64713,681.407,262.57236,681.583C262.53513,681.6709,262.4617,682.15894,262.43112,682.65015C262.35025,683.6095,262.56796,684.3544,263.19687,685.3181C264.04037,686.5808,264.75156,687.98035,264.71487,688.276C264.61026,689.0471,263.86032,689.3816,262.0269,689.50793C260.88174,689.58545,259.58957,690.1494,257.72598,691.3607C257.43283,691.5626,256.18362,692.13,254.97374,692.63965C253.76363,693.1494,252.5504,693.7024,252.28572,693.8716C251.2625,694.5348,250.61201,695.08923,250.48933,695.3782C250.18001,696.10706,249.86736,696.38965,249.26897,696.5062C248.93044,696.5703,248.47884,696.5863,248.25633,696.55115C247.9156,696.48083,247.52483,696.4928,245.58217,696.6323C245.33324,696.66016,244.87263,696.7318,244.55937,696.8065C244.24599,696.8812,243.757,696.985,243.47212,697.0272C243.18724,697.0696,242.46715,697.1941,241.85619,697.3053C240.49669,697.5737,237.95229,697.8733,237.78902,697.8037C237.71349,697.7717,237.55064,697.8064,237.42,697.8696C237.02263,698.0718,235.64189,697.4114,235.02992,696.7219C234.58925,696.22327,233.78957,694.6826,233.16933,693.1738C233.08067,692.92847,232.7824,692.2683,232.52766,691.7152C232.2729,691.1621,231.83336,689.99695,231.54173,689.1466C231.26793,688.2888,230.99257,687.5045,230.94398,687.4098C230.60243,686.6421,229.8178,683.18005,229.81468,682.348C229.7947,681.7313,230.14702,681.00586,230.56752,680.78394C230.76237,680.67395,231.44582,680.2521,232.08064,679.8395C232.71538,679.42676,233.31645,679.05884,233.41661,678.99744C234.36473,678.51025,235.29503,677.9259,235.87767,677.4617C236.26192,677.15,236.68935,676.84216,236.82536,676.76636C236.96855,676.7085,237.10786,676.5896,237.1346,676.52673C237.25716,676.2377,239.8896,674.9971,241.1627,674.6179C241.33104,674.57056,241.85948,674.4093,242.32115,674.26416C243.17345,674.0028,244.52623,673.8207,244.79018,673.93274C245.09175,674.0608,248.91457,673.8589,250.11845,673.6433C250.63252,673.5499,251.08781,673.4911,251.13786,673.5123C251.17567,673.52844,251.473,673.49133,251.7758,673.442C252.09663,673.38513,252.99751,673.219,253.80174,673.07104C256.21494,672.62683,256.9337,672.5759,257.46677,672.78723C257.66763,672.8727,258.14792,673.3137,258.53146,673.77295L258.53012,673.77246 Z"/>
</g>
<g style="fill:white; fill-opacity:1.0; stroke-linejoin: miter">
<path d="M52.817314,676.3098L122.45294,673.31213L192.08849,670.3146Q193.89687,712.31824,195.70522,754.3219Q126.06967,757.32043,56.434135,760.319L52.817314,676.3098"/>
</g>
<g style="fill:white; fill-opacity:1.0; stroke-linejoin: miter">
<path d="M627.3742,522.82074L627.3742,522.82074L627.37427,522.8209C627.376,522.87054,627.3757,522.92035,627.3733,522.97L627.3733,522.97L624.7931,576.9272C624.7457,577.9178,623.9043,578.6823,622.9138,578.6351C621.9233,578.5876,621.1587,577.7463,621.2061,576.7558L621.2061,576.7558L623.7863,522.79846L623.7854,522.94763L623.7854,522.9474C623.75037,521.9564,624.52545,521.12463,625.5164,521.0896C626.5075,521.0546,627.3393,521.8297,627.3742,522.82074 Z"/>
</g>
<g style="fill:white; fill-opacity:1.0; stroke-linejoin: miter">
<path d="M628.62225,522.59705L628.62225,522.59705L628.62225,522.5972C628.6233,522.62604,628.6236,522.65485,628.6232,522.68365L628.6232,522.68365L628.0496,567.4128C628.03687,568.40436,627.2227,569.19794,626.23114,569.1851C625.23956,569.17255,624.4461,568.35834,624.45874,567.36676L624.45874,567.36676L625.0324,522.6376L625.03345,522.72394L625.03345,522.72375C624.9984,521.7327,625.77344,520.90094,626.76447,520.866C627.7555,520.83105,628.5873,521.606,628.62225,522.59705 Z"/>
</g>
<g style="fill:white; fill-opacity:1.0; stroke-linejoin: miter">
<path d="M629.74176,523.8144L629.74176,523.8144L629.74176,523.81464L629.7402,523.7793L631.7423,560.1579C631.7968,561.14813,631.0383,561.99493,630.04816,562.0495C629.05804,562.10406,628.2112,561.3455,628.1567,560.3553L628.1567,560.3553L626.1545,523.9766C626.1539,523.96484,626.1533,523.9531,626.1529,523.94135L626.1529,523.94135L626.1529,523.9411C626.1179,522.95013,626.89294,522.11835,627.884,522.0833C628.875,522.0484,629.7068,522.8234,629.74176,523.8144 Z"/>
</g>
</g>
</svg>